<?xml version="1.0" encoding="UTF-8" standalone="no"?>
<!DOCTYPE svg PUBLIC "-//W3C//DTD SVG 1.1//EN"
 "http://www.w3.org/Graphics/SVG/1.1/DTD/svg11.dtd">
<!-- Generated by graphviz version 2.40.1 (20161225.0304)
 -->
<!-- Title: G Pages: 1 -->
<svg width="217pt" height="283pt"
 viewBox="0.00 0.00 217.34 282.60" xmlns="http://www.w3.org/2000/svg" xmlns:xlink="http://www.w3.org/1999/xlink">
<g id="graph0" class="graph" transform="scale(1 1) rotate(0) translate(4 278.6)">
<title>G</title>
<polygon fill="#ffffff" stroke="transparent" points="-4,4 -4,-278.6 213.3421,-278.6 213.3421,4 -4,4"/>
<g id="clust1" class="cluster">
<title>cluster_0</title>
<polygon fill="none" stroke="#000000" points="14.3421,-8 14.3421,-211.6 201.3421,-211.6 201.3421,-8 14.3421,-8"/>
<text text-anchor="middle" x="107.8421" y="-195" font-family="Times,serif" font-size="14.00" fill="#000000">Dataset</text>
</g>
<!-- _ -->
<g id="node1" class="node">
<title>_</title>
<ellipse fill="none" stroke="#000000" cx="40.3421" cy="-160.8" rx="18" ry="18"/>
</g>
<!-- &quot;John Doe&quot; -->
<g id="node2" class="node">
<title>&quot;John Doe&quot;</title>
<polygon fill="none" stroke="#000000" points="102.5297,-52 22.1545,-52 22.1545,-16 102.5297,-16 102.5297,-52"/>
<text text-anchor="middle" x="62.3421" y="-29.8" font-family="Times,serif" font-size="14.00" fill="#000000">&quot;John Doe&quot;</text>
</g>
<!-- _&#45;&gt;&quot;John Doe&quot; -->
<g id="edge1" class="edge">
<title>_&#45;&gt;&quot;John Doe&quot;</title>
<path fill="none" stroke="#000000" d="M43.4475,-142.9016C47.0956,-121.8755 53.1921,-86.7374 57.4711,-62.0747"/>
<polygon fill="#000000" stroke="#000000" points="60.9202,-62.6691 59.1813,-52.2179 54.0232,-61.4724 60.9202,-62.6691"/>
<text text-anchor="middle" x="128.7436" y="-93.2" font-family="Times,serif" font-size="14.00" fill="#000000"> &#160;http://schema.org/name &#160;&#160;&#160;</text>
</g>
<!-- focus -->
<g id="node3" class="node">
<title>focus</title>
<polygon fill="none" stroke="#000000" stroke-width="2" points="74.5269,-274.6 .1573,-274.6 .1573,-238.6 80.5269,-238.6 80.5269,-268.6 74.5269,-274.6"/>
<polyline fill="none" stroke="#000000" stroke-width="2" points="74.5269,-274.6 74.5269,-268.6 "/>
<polyline fill="none" stroke="#000000" stroke-width="2" points="80.5269,-268.6 74.5269,-268.6 "/>
<text text-anchor="middle" x="40.3421" y="-252.4" font-family="Times,serif" font-size="14.00" fill="#000000">&quot;This one!&quot;</text>
</g>
<!-- focus&#45;&gt;_ -->
<g id="edge2" class="edge">
<title>focus&#45;&gt;_</title>
<path fill="none" stroke="#000000" stroke-width="2" d="M40.3421,-238.5808C40.3421,-224.7527 40.3421,-205.393 40.3421,-189.4477"/>
<polygon fill="none" stroke="#000000" stroke-width="2" points="43.8422,-189.0641 40.3421,-179.0642 36.8422,-189.0642 43.8422,-189.0641"/>
</g>
</g>
</svg>
