<?xml version="1.0" encoding="UTF-8" standalone="no"?>
<!DOCTYPE svg PUBLIC "-//W3C//DTD SVG 1.1//EN"
 "http://www.w3.org/Graphics/SVG/1.1/DTD/svg11.dtd">
<!-- Generated by graphviz version 2.40.1 (20161225.0304)
 -->
<!-- Title: G Pages: 1 -->
<svg width="316pt" height="327pt"
 viewBox="0.00 0.00 316.00 327.20" xmlns="http://www.w3.org/2000/svg" xmlns:xlink="http://www.w3.org/1999/xlink">
<g id="graph0" class="graph" transform="scale(1 1) rotate(0) translate(4 323.2)">
<title>G</title>
<polygon fill="#ffffff" stroke="transparent" points="-4,4 -4,-323.2 312,-323.2 312,4 -4,4"/>
<!-- _:a -->
<g id="node1" class="node">
<title>_:a</title>
<polygon fill="none" stroke="#000000" points="166.8129,-224.6019 33.1871,-224.6019 33.1871,-183.3981 166.8129,-183.3981 166.8129,-224.6019"/>
<text text-anchor="middle" x="100" y="-208.2" font-family="monospace" font-size="14.00" fill="#000000"> &#160;&#160;&#160;&#160;_:a &#160;&#160;&#160;&#160;&#160;&#160;&#160;&#160;&#160;&#160;&#160;&#160;&#160;&#160;&#160;</text>
<text text-anchor="middle" x="100" y="-191.4" font-family="monospace" font-size="14.00" fill="#000000"> &#160;&#160;&#160;&#160;_:a type Person &#160;&#160;&#160;</text>
</g>
<!-- _:b -->
<g id="node2" class="node">
<title>_:b</title>
<polygon fill="none" stroke="#000000" points="280.0988,-130.2019 145.9012,-130.2019 145.9012,-88.9981 280.0988,-88.9981 280.0988,-130.2019"/>
<text text-anchor="middle" x="213" y="-113.8" font-family="monospace" font-size="14.00" fill="#000000"> &#160;&#160;&#160;&#160;_:b &#160;&#160;&#160;&#160;&#160;&#160;&#160;&#160;&#160;&#160;&#160;&#160;&#160;&#160;&#160;</text>
<text text-anchor="middle" x="213" y="-97" font-family="monospace" font-size="14.00" fill="#000000"> &#160;&#160;&#160;&#160;_:b type Person &#160;&#160;&#160;</text>
</g>
<!-- _:a&#45;&#45;_:b -->
<g id="edge1" class="edge">
<title>_:a&#45;&#45;_:b</title>
<path fill="none" stroke="#000000" d="M119.0689,-183.2471C129.4984,-172.3674 142.9094,-159.1136 155.8962,-148.4 163.4777,-142.1456 172.0611,-135.917 180.2268,-130.3394"/>
<text text-anchor="middle" x="174.0519" y="-152.6" font-family="monospace" font-size="14.00" fill="#000000">spouse</text>
</g>
<!-- _:an -->
<g id="node4" class="node">
<title>_:an</title>
<polygon fill="none" stroke="#000000" points="54,-127.6 0,-127.6 0,-91.6 54,-91.6 54,-127.6"/>
<text text-anchor="middle" x="27" y="-105.4" font-family="monospace" font-size="14.00" fill="#000000">_:an</text>
</g>
<!-- _:a&#45;&#45;_:an -->
<g id="edge4" class="edge">
<title>_:a&#45;&#45;_:an</title>
<path fill="none" stroke="#000000" d="M64.1296,-183.2889C57.2946,-178.0758 50.7145,-171.9993 45.6802,-165.2 37.4999,-154.1517 32.7525,-139.294 30.0922,-127.7171"/>
<text text-anchor="middle" x="61.1599" y="-152.6" font-family="monospace" font-size="14.00" fill="#000000">name</text>
</g>
<!-- _:g -->
<g id="node7" class="node">
<title>_:g</title>
<polygon fill="none" stroke="#000000" points="143,-36 89,-36 89,0 143,0 143,-36"/>
<text text-anchor="middle" x="116" y="-13.8" font-family="monospace" font-size="14.00" fill="#000000">_:g</text>
</g>
<!-- _:a&#45;&#45;_:g -->
<g id="edge7" class="edge">
<title>_:a&#45;&#45;_:g</title>
<path fill="none" stroke="#000000" d="M98.2067,-183.1018C96.5909,-159.9541 95.0111,-121.5703 98.9102,-88.8 101.0764,-70.5936 106.2714,-50.2979 110.3692,-36.1205"/>
<text text-anchor="middle" x="118.0449" y="-105.4" font-family="monospace" font-size="14.00" fill="#000000">gender</text>
</g>
<!-- _:bn -->
<g id="node5" class="node">
<title>_:bn</title>
<polygon fill="none" stroke="#000000" points="240,-36 186,-36 186,0 240,0 240,-36"/>
<text text-anchor="middle" x="213" y="-13.8" font-family="monospace" font-size="14.00" fill="#000000">_:bn</text>
</g>
<!-- _:b&#45;&#45;_:bn -->
<g id="edge5" class="edge">
<title>_:b&#45;&#45;_:bn</title>
<path fill="none" stroke="#000000" d="M213,-88.8145C213,-72.9791 213,-51.3886 213,-36.2239"/>
<text text-anchor="middle" x="228.1599" y="-58.2" font-family="monospace" font-size="14.00" fill="#000000">name</text>
</g>
<!-- _:b&#45;&#45;_:g -->
<g id="edge6" class="edge">
<title>_:b&#45;&#45;_:g</title>
<path fill="none" stroke="#000000" d="M190.2013,-88.7452C183.925,-82.9601 177.1331,-76.6589 170.9102,-70.8 158.7776,-59.3771 145.2862,-46.4079 134.7125,-36.1817"/>
<text text-anchor="middle" x="189.0449" y="-58.2" font-family="monospace" font-size="14.00" fill="#000000">gender</text>
</g>
<!-- _:m -->
<g id="node3" class="node">
<title>_:m</title>
<polygon fill="none" stroke="#000000" points="272.9362,-319.0019 143.0638,-319.0019 143.0638,-277.7981 272.9362,-277.7981 272.9362,-319.0019"/>
<text text-anchor="middle" x="208" y="-302.6" font-family="monospace" font-size="14.00" fill="#000000"> &#160;&#160;&#160;_:m &#160;&#160;&#160;&#160;&#160;&#160;&#160;&#160;&#160;&#160;&#160;&#160;&#160;</text>
<text text-anchor="middle" x="208" y="-285.8" font-family="monospace" font-size="14.00" fill="#000000"> &#160;&#160;&#160;_:m type Movie &#160;&#160;</text>
</g>
<!-- _:m&#45;&#45;_:a -->
<g id="edge2" class="edge">
<title>_:m&#45;&#45;_:a</title>
<path fill="none" stroke="#000000" d="M184.2989,-277.6835C166.292,-261.9441 141.6391,-240.3957 123.6458,-224.6682"/>
<text text-anchor="middle" x="173.9902" y="-247" font-family="monospace" font-size="14.00" fill="#000000">actor</text>
</g>
<!-- _:m&#45;&#45;_:b -->
<g id="edge3" class="edge">
<title>_:m&#45;&#45;_:b</title>
<path fill="none" stroke="#000000" d="M208.5542,-277.4737C209.5178,-241.0865 211.4909,-166.5835 212.4509,-130.3323"/>
<text text-anchor="middle" x="223.9902" y="-199.8" font-family="monospace" font-size="14.00" fill="#000000">actor</text>
</g>
<!-- _:mn -->
<g id="node6" class="node">
<title>_:mn</title>
<polygon fill="none" stroke="#000000" points="308,-222 254,-222 254,-186 308,-186 308,-222"/>
<text text-anchor="middle" x="281" y="-199.8" font-family="monospace" font-size="14.00" fill="#000000">_:mn</text>
</g>
<!-- _:m&#45;&#45;_:mn -->
<g id="edge8" class="edge">
<title>_:m&#45;&#45;_:mn</title>
<path fill="none" stroke="#000000" d="M224.2011,-277.4496C237.0545,-260.8282 254.8322,-237.8389 267.0571,-222.0303"/>
<text text-anchor="middle" x="263.1599" y="-247" font-family="monospace" font-size="14.00" fill="#000000">name</text>
</g>
</g>
</svg>