<?xml version="1.0" encoding="UTF-8" standalone="no"?>
<!DOCTYPE svg PUBLIC "-//W3C//DTD SVG 1.1//EN"
 "http://www.w3.org/Graphics/SVG/1.1/DTD/svg11.dtd">
<!-- Generated by graphviz version 2.40.1 (20161225.0304)
 -->
<!-- Title: G Pages: 1 -->
<svg width="880pt" height="222pt"
 viewBox="0.00 0.00 880.43 221.60" xmlns="http://www.w3.org/2000/svg" xmlns:xlink="http://www.w3.org/1999/xlink">
<g id="graph0" class="graph" transform="scale(1 1) rotate(0) translate(4 217.6)">
<title>G</title>
<polygon fill="#ffffff" stroke="transparent" points="-4,4 -4,-217.6 876.4303,-217.6 876.4303,4 -4,4"/>
<!-- bob -->
<g id="node1" class="node">
<title>bob</title>
<polygon fill="none" stroke="#000000" points="324.7641,-213.6 156.6953,-213.6 156.6953,-177.6 324.7641,-177.6 324.7641,-213.6"/>
<text text-anchor="middle" x="240.7297" y="-191.4" font-family="Times,serif" font-size="14.00" fill="#000000">http://example.org/bob#me</text>
</g>
<!-- lisa -->
<g id="node2" class="node">
<title>lisa</title>
<polygon fill="none" stroke="#000000" points="688.8255,-124.8 484.6339,-124.8 484.6339,-88.8 688.8255,-88.8 688.8255,-124.8"/>
<text text-anchor="middle" x="586.7297" y="-102.6" font-family="Times,serif" font-size="14.00" fill="#000000">http://wikidata.org/entity/Q12418</text>
</g>
<!-- bob&#45;&gt;lisa -->
<g id="edge1" class="edge">
<title>bob&#45;&gt;lisa</title>
<path fill="none" stroke="#000000" d="M324.8964,-179.3268C361.4651,-172.0816 399.9633,-164.1694 417.7297,-159.6 453.3421,-150.4408 492.5743,-138.3124 524.2672,-127.9896"/>
<polygon fill="#000000" stroke="#000000" points="525.436,-131.2898 533.8485,-124.8492 523.2557,-124.6379 525.436,-131.2898"/>
<text text-anchor="middle" x="525.0439" y="-147" font-family="Times,serif" font-size="14.00" fill="#000000">foaf:topic_interest</text>
</g>
<!-- http://example.org/alice#me -->
<g id="node3" class="node">
<title>http://example.org/alice#me</title>
<polygon fill="none" stroke="#000000" points="173.6897,-124.8 -.2303,-124.8 -.2303,-88.8 173.6897,-88.8 173.6897,-124.8"/>
<text text-anchor="middle" x="86.7297" y="-102.6" font-family="Times,serif" font-size="14.00" fill="#000000">http://example.org/alice#me</text>
</g>
<!-- bob&#45;&gt;http://example.org/alice#me -->
<g id="edge2" class="edge">
<title>bob&#45;&gt;http://example.org/alice#me</title>
<path fill="none" stroke="#000000" d="M202.5956,-177.4866C191.5482,-171.9823 179.5566,-165.7556 168.7521,-159.6 153.0326,-150.6442 136.1494,-139.9684 121.811,-130.5677"/>
<polygon fill="#000000" stroke="#000000" points="123.5177,-127.5003 113.2454,-124.9059 119.6577,-133.3399 123.5177,-127.5003"/>
<text text-anchor="middle" x="201.2185" y="-147" font-family="Times,serif" font-size="14.00" fill="#000000">foaf:knows</text>
</g>
<!-- foaf:Person -->
<g id="node4" class="node">
<title>foaf:Person</title>
<polygon fill="none" stroke="#000000" points="271.7599,-124.8 191.6995,-124.8 191.6995,-88.8 271.7599,-88.8 271.7599,-124.8"/>
<text text-anchor="middle" x="231.7297" y="-102.6" font-family="Times,serif" font-size="14.00" fill="#000000">foaf:Person</text>
</g>
<!-- bob&#45;&gt;foaf:Person -->
<g id="edge3" class="edge">
<title>bob&#45;&gt;foaf:Person</title>
<path fill="none" stroke="#000000" d="M238.8649,-177.2006C237.6258,-164.975 235.9752,-148.6887 234.5736,-134.8599"/>
<polygon fill="#000000" stroke="#000000" points="238.0519,-134.4681 233.5613,-124.872 231.0876,-135.174 238.0519,-134.4681"/>
<text text-anchor="middle" x="259.8882" y="-147" font-family="Times,serif" font-size="14.00" fill="#000000">rdf:type</text>
</g>
<!-- &quot;1990&#45;07&#45;04&quot;^^xsd:date -->
<g id="node5" class="node">
<title>&quot;1990&#45;07&#45;04&quot;^^xsd:date</title>
<polygon fill="none" stroke="#000000" points="442.757,-124.8 290.7024,-124.8 290.7024,-88.8 442.757,-88.8 442.757,-124.8"/>
<text text-anchor="middle" x="366.7297" y="-102.6" font-family="Times,serif" font-size="14.00" fill="#000000">&quot;1990&#45;07&#45;04&quot;^^xsd:date</text>
</g>
<!-- bob&#45;&gt;&quot;1990&#45;07&#45;04&quot;^^xsd:date -->
<g id="edge4" class="edge">
<title>bob&#45;&gt;&quot;1990&#45;07&#45;04&quot;^^xsd:date</title>
<path fill="none" stroke="#000000" d="M266.5317,-177.4157C285.6421,-163.9474 311.8671,-145.4651 332.6939,-130.7871"/>
<polygon fill="#000000" stroke="#000000" points="334.8044,-133.5816 340.9622,-124.96 330.7719,-127.8598 334.8044,-133.5816"/>
<text text-anchor="middle" x="364.0986" y="-147" font-family="Times,serif" font-size="14.00" fill="#000000">schema:birthDate</text>
</g>
<!-- http://dbpedia.org/resource/Leonardo_da_Vinci -->
<g id="node6" class="node">
<title>http://dbpedia.org/resource/Leonardo_da_Vinci</title>
<polygon fill="none" stroke="#000000" points="626.3133,-36 343.1461,-36 343.1461,0 626.3133,0 626.3133,-36"/>
<text text-anchor="middle" x="484.7297" y="-13.8" font-family="Times,serif" font-size="14.00" fill="#000000">http://dbpedia.org/resource/Leonardo_da_Vinci</text>
</g>
<!-- lisa&#45;&gt;http://dbpedia.org/resource/Leonardo_da_Vinci -->
<g id="edge5" class="edge">
<title>lisa&#45;&gt;http://dbpedia.org/resource/Leonardo_da_Vinci</title>
<path fill="none" stroke="#000000" d="M559.8489,-88.743C552.1574,-83.2399 543.9024,-76.9998 536.6679,-70.8 527.002,-62.5165 517.0447,-52.7435 508.4668,-43.8718"/>
<polygon fill="#000000" stroke="#000000" points="510.7549,-41.1991 501.3258,-36.3676 505.6839,-46.0246 510.7549,-41.1991"/>
<text text-anchor="middle" x="579.2606" y="-58.2" font-family="Times,serif" font-size="14.00" fill="#000000">dcterms:creator</text>
</g>
<!-- &quot;Mona Lisa&quot; -->
<g id="node7" class="node">
<title>&quot;Mona Lisa&quot;</title>
<polygon fill="none" stroke="#000000" points="731.4131,-36 644.0463,-36 644.0463,0 731.4131,0 731.4131,-36"/>
<text text-anchor="middle" x="687.7297" y="-13.8" font-family="Times,serif" font-size="14.00" fill="#000000">&quot;Mona Lisa&quot;</text>
</g>
<!-- lisa&#45;&gt;&quot;Mona Lisa&quot; -->
<g id="edge6" class="edge">
<title>lisa&#45;&gt;&quot;Mona Lisa&quot;</title>
<path fill="none" stroke="#000000" d="M607.657,-88.4006C622.6528,-75.2162 643.0202,-57.309 659.4604,-42.8546"/>
<polygon fill="#000000" stroke="#000000" points="661.9757,-45.3035 667.1748,-36.072 657.3537,-40.0464 661.9757,-45.3035"/>
<text text-anchor="middle" x="680.7213" y="-58.2" font-family="Times,serif" font-size="14.00" fill="#000000">dcterms:title</text>
</g>
<!-- http://data.europeana.eu/item/04802/243FA8618938F4117025F17A8B813C5F9AA4D619 -->
<g id="node8" class="node">
<title>http://data.europeana.eu/item/04802/243FA8618938F4117025F17A8B813C5F9AA4D619</title>
<polygon fill="none" stroke="#000000" points="872.6311,-213.6 346.8283,-213.6 346.8283,-177.6 872.6311,-177.6 872.6311,-213.6"/>
<text text-anchor="middle" x="609.7297" y="-191.4" font-family="Times,serif" font-size="14.00" fill="#000000">http://data.europeana.eu/item/04802/243FA8618938F4117025F17A8B813C5F9AA4D619</text>
</g>
<!-- http://data.europeana.eu/item/04802/243FA8618938F4117025F17A8B813C5F9AA4D619&#45;&gt;lisa -->
<g id="edge7" class="edge">
<title>http://data.europeana.eu/item/04802/243FA8618938F4117025F17A8B813C5F9AA4D619&#45;&gt;lisa</title>
<path fill="none" stroke="#000000" d="M604.9641,-177.2006C601.7976,-164.975 597.5792,-148.6887 593.9975,-134.8599"/>
<polygon fill="#000000" stroke="#000000" points="597.3061,-133.675 591.4105,-124.872 590.5297,-135.4302 597.3061,-133.675"/>
<text text-anchor="middle" x="643.6603" y="-147" font-family="Times,serif" font-size="14.00" fill="#000000">dcterms:subject</text>
</g>
</g>
</svg>