<?xml version="1.0" encoding="UTF-8" standalone="no"?>
<!DOCTYPE svg PUBLIC "-//W3C//DTD SVG 1.1//EN"
 "http://www.w3.org/Graphics/SVG/1.1/DTD/svg11.dtd">
<!-- Generated by graphviz version 2.40.1 (20161225.0304)
 -->
<!-- Title: G Pages: 1 -->
<svg width="494pt" height="152pt"
 viewBox="0.00 0.00 494.00 152.00" xmlns="http://www.w3.org/2000/svg" xmlns:xlink="http://www.w3.org/1999/xlink">
<g id="graph0" class="graph" transform="scale(1 1) rotate(0) translate(4 148)">
<title>G</title>
<polygon fill="#ffffff" stroke="transparent" points="-4,4 -4,-148 490,-148 490,4 -4,4"/>
<!-- _:b0 -->
<g id="node1" class="node">
<title>_:b0</title>
<ellipse fill="none" stroke="#000000" cx="27" cy="-126" rx="18" ry="18"/>
</g>
<!-- _:b1 -->
<g id="node2" class="node">
<title>_:b1</title>
<ellipse fill="none" stroke="#000000" cx="135" cy="-126" rx="18" ry="18"/>
</g>
<!-- _:b0&#45;&gt;_:b1 -->
<g id="edge5" class="edge">
<title>_:b0&#45;&gt;_:b1</title>
<path fill="none" stroke="#000000" d="M45.3207,-126C62.179,-126 87.4349,-126 106.853,-126"/>
<polygon fill="#000000" stroke="#000000" points="106.9499,-129.5001 116.9498,-126 106.9498,-122.5001 106.9499,-129.5001"/>
<text text-anchor="middle" x="93.1921" y="-130.2" font-family="Times,serif" font-size="14.00" fill="#000000">rest &#160;&#160;&#160;</text>
</g>
<!-- &quot;fee&quot; -->
<g id="node6" class="node">
<title>&quot;fee&quot;</title>
<polygon fill="none" stroke="#000000" points="54,-36 0,-36 0,0 54,0 54,-36"/>
<text text-anchor="middle" x="27" y="-13.8" font-family="Times,serif" font-size="14.00" fill="#000000">&quot;fee&quot;</text>
</g>
<!-- _:b0&#45;&gt;&quot;fee&quot; -->
<g id="edge1" class="edge">
<title>_:b0&#45;&gt;&quot;fee&quot;</title>
<path fill="none" stroke="#000000" d="M27,-107.6793C27,-90.821 27,-65.5651 27,-46.147"/>
<polygon fill="#000000" stroke="#000000" points="30.5001,-46.0501 27,-36.0502 23.5001,-46.0502 30.5001,-46.0501"/>
<text text-anchor="middle" x="13.9765" y="-81.1131" font-family="Times,serif" font-size="14.00" fill="#000000">first </text>
</g>
<!-- _:b2 -->
<g id="node3" class="node">
<title>_:b2</title>
<ellipse fill="none" stroke="#000000" cx="243" cy="-126" rx="18" ry="18"/>
</g>
<!-- _:b1&#45;&gt;_:b2 -->
<g id="edge6" class="edge">
<title>_:b1&#45;&gt;_:b2</title>
<path fill="none" stroke="#000000" d="M153.3207,-126C170.179,-126 195.4349,-126 214.853,-126"/>
<polygon fill="#000000" stroke="#000000" points="214.9499,-129.5001 224.9498,-126 214.9498,-122.5001 214.9499,-129.5001"/>
<text text-anchor="middle" x="201.1921" y="-130.2" font-family="Times,serif" font-size="14.00" fill="#000000">rest &#160;&#160;&#160;</text>
</g>
<!-- &quot;fi&quot; -->
<g id="node7" class="node">
<title>&quot;fi&quot;</title>
<polygon fill="none" stroke="#000000" points="162,-36 108,-36 108,0 162,0 162,-36"/>
<text text-anchor="middle" x="135" y="-13.8" font-family="Times,serif" font-size="14.00" fill="#000000">&quot;fi&quot;</text>
</g>
<!-- _:b1&#45;&gt;&quot;fi&quot; -->
<g id="edge2" class="edge">
<title>_:b1&#45;&gt;&quot;fi&quot;</title>
<path fill="none" stroke="#000000" d="M135,-107.6793C135,-90.821 135,-65.5651 135,-46.147"/>
<polygon fill="#000000" stroke="#000000" points="138.5001,-46.0501 135,-36.0502 131.5001,-46.0502 138.5001,-46.0501"/>
<text text-anchor="middle" x="121.9765" y="-81.1131" font-family="Times,serif" font-size="14.00" fill="#000000">first </text>
</g>
<!-- _:b3 -->
<g id="node4" class="node">
<title>_:b3</title>
<ellipse fill="none" stroke="#000000" cx="351" cy="-126" rx="18" ry="18"/>
</g>
<!-- _:b2&#45;&gt;_:b3 -->
<g id="edge7" class="edge">
<title>_:b2&#45;&gt;_:b3</title>
<path fill="none" stroke="#000000" d="M261.3207,-126C278.179,-126 303.4349,-126 322.853,-126"/>
<polygon fill="#000000" stroke="#000000" points="322.9499,-129.5001 332.9498,-126 322.9498,-122.5001 322.9499,-129.5001"/>
<text text-anchor="middle" x="309.1921" y="-130.2" font-family="Times,serif" font-size="14.00" fill="#000000">rest &#160;&#160;&#160;</text>
</g>
<!-- &quot;fo&quot; -->
<g id="node8" class="node">
<title>&quot;fo&quot;</title>
<polygon fill="none" stroke="#000000" points="270,-36 216,-36 216,0 270,0 270,-36"/>
<text text-anchor="middle" x="243" y="-13.8" font-family="Times,serif" font-size="14.00" fill="#000000">&quot;fo&quot;</text>
</g>
<!-- _:b2&#45;&gt;&quot;fo&quot; -->
<g id="edge3" class="edge">
<title>_:b2&#45;&gt;&quot;fo&quot;</title>
<path fill="none" stroke="#000000" d="M243,-107.6793C243,-90.821 243,-65.5651 243,-46.147"/>
<polygon fill="#000000" stroke="#000000" points="246.5001,-46.0501 243,-36.0502 239.5001,-46.0502 246.5001,-46.0501"/>
<text text-anchor="middle" x="229.9765" y="-81.1131" font-family="Times,serif" font-size="14.00" fill="#000000">first </text>
</g>
<!-- nil -->
<g id="node5" class="node">
<title>nil</title>
<polygon fill="none" stroke="#000000" points="486,-144 432,-144 432,-108 486,-108 486,-144"/>
<text text-anchor="middle" x="459" y="-121.8" font-family="Times,serif" font-size="14.00" fill="#000000">nil</text>
</g>
<!-- _:b3&#45;&gt;nil -->
<g id="edge8" class="edge">
<title>_:b3&#45;&gt;nil</title>
<path fill="none" stroke="#000000" d="M369.3207,-126C383.6082,-126 403.9272,-126 421.6125,-126"/>
<polygon fill="#000000" stroke="#000000" points="421.6555,-129.5001 431.6554,-126 421.6554,-122.5001 421.6555,-129.5001"/>
<text text-anchor="middle" x="412.5718" y="-130.2" font-family="Times,serif" font-size="14.00" fill="#000000">rest &#160;&#160;&#160;</text>
</g>
<!-- &quot;fum&quot; -->
<g id="node9" class="node">
<title>&quot;fum&quot;</title>
<polygon fill="none" stroke="#000000" points="378,-36 324,-36 324,0 378,0 378,-36"/>
<text text-anchor="middle" x="351" y="-13.8" font-family="Times,serif" font-size="14.00" fill="#000000">&quot;fum&quot;</text>
</g>
<!-- _:b3&#45;&gt;&quot;fum&quot; -->
<g id="edge4" class="edge">
<title>_:b3&#45;&gt;&quot;fum&quot;</title>
<path fill="none" stroke="#000000" d="M351,-107.6793C351,-90.821 351,-65.5651 351,-46.147"/>
<polygon fill="#000000" stroke="#000000" points="354.5001,-46.0501 351,-36.0502 347.5001,-46.0502 354.5001,-46.0501"/>
<text text-anchor="middle" x="337.9765" y="-81.1131" font-family="Times,serif" font-size="14.00" fill="#000000">first </text>
</g>
</g>
</svg>