<?xml version="1.0" encoding="UTF-8" standalone="no"?>
<!DOCTYPE svg PUBLIC "-//W3C//DTD SVG 1.1//EN"
 "http://www.w3.org/Graphics/SVG/1.1/DTD/svg11.dtd">
<!-- Generated by graphviz version 2.40.1 (20161225.0304)
 -->
<!-- Title: G Pages: 1 -->
<svg width="495pt" height="152pt"
 viewBox="0.00 0.00 495.00 152.00" xmlns="http://www.w3.org/2000/svg" xmlns:xlink="http://www.w3.org/1999/xlink">
<g id="graph0" class="graph" transform="scale(1 1) rotate(0) translate(4 148)">
<title>G</title>
<polygon fill="#ffffff" stroke="transparent" points="-4,4 -4,-148 491,-148 491,4 -4,4"/>
<!-- _:b0 -->
<g id="node1" class="node">
<title>_:b0</title>
<ellipse fill="none" stroke="#000000" cx="28" cy="-126" rx="28.4127" ry="18"/>
<text text-anchor="middle" x="28" y="-121.8" font-family="Times,serif" font-size="14.00" fill="#000000">_:b0</text>
</g>
<!-- _:b1 -->
<g id="node2" class="node">
<title>_:b1</title>
<ellipse fill="none" stroke="#000000" cx="136" cy="-126" rx="28.4127" ry="18"/>
<text text-anchor="middle" x="136" y="-121.8" font-family="Times,serif" font-size="14.00" fill="#000000">_:b1</text>
</g>
<!-- _:b0&#45;&gt;_:b1 -->
<g id="edge5" class="edge">
<title>_:b0&#45;&gt;_:b1</title>
<path fill="none" stroke="#000000" d="M56.3757,-126C68.9259,-126 83.8801,-126 97.4219,-126"/>
<polygon fill="#000000" stroke="#000000" points="97.4388,-129.5001 107.4388,-126 97.4388,-122.5001 97.4388,-129.5001"/>
<text text-anchor="middle" x="85.4514" y="-113.4" font-family="Times,serif" font-size="14.00" fill="#000000">rest &#160;&#160;&#160;</text>
</g>
<!-- fee -->
<g id="node6" class="node">
<title>fee</title>
<polygon fill="none" stroke="#000000" points="55,-36 1,-36 1,0 55,0 55,-36"/>
<text text-anchor="middle" x="28" y="-13.8" font-family="Times,serif" font-size="14.00" fill="#000000">fee</text>
</g>
<!-- _:b0&#45;&gt;fee -->
<g id="edge1" class="edge">
<title>_:b0&#45;&gt;fee</title>
<path fill="none" stroke="#000000" d="M28,-107.6793C28,-90.821 28,-65.5651 28,-46.147"/>
<polygon fill="#000000" stroke="#000000" points="31.5001,-46.0501 28,-36.0502 24.5001,-46.0502 31.5001,-46.0501"/>
<text text-anchor="middle" x="14.9765" y="-81.1131" font-family="Times,serif" font-size="14.00" fill="#000000">first </text>
</g>
<!-- _:b2 -->
<g id="node3" class="node">
<title>_:b2</title>
<ellipse fill="none" stroke="#000000" cx="244" cy="-126" rx="28.4127" ry="18"/>
<text text-anchor="middle" x="244" y="-121.8" font-family="Times,serif" font-size="14.00" fill="#000000">_:b2</text>
</g>
<!-- _:b1&#45;&gt;_:b2 -->
<g id="edge6" class="edge">
<title>_:b1&#45;&gt;_:b2</title>
<path fill="none" stroke="#000000" d="M164.3757,-126C176.9259,-126 191.8801,-126 205.4219,-126"/>
<polygon fill="#000000" stroke="#000000" points="205.4388,-129.5001 215.4388,-126 205.4388,-122.5001 205.4388,-129.5001"/>
<text text-anchor="middle" x="193.4514" y="-113.4" font-family="Times,serif" font-size="14.00" fill="#000000">rest &#160;&#160;&#160;</text>
</g>
<!-- fi -->
<g id="node7" class="node">
<title>fi</title>
<polygon fill="none" stroke="#000000" points="163,-36 109,-36 109,0 163,0 163,-36"/>
<text text-anchor="middle" x="136" y="-13.8" font-family="Times,serif" font-size="14.00" fill="#000000">fi</text>
</g>
<!-- _:b1&#45;&gt;fi -->
<g id="edge2" class="edge">
<title>_:b1&#45;&gt;fi</title>
<path fill="none" stroke="#000000" d="M136,-107.6793C136,-90.821 136,-65.5651 136,-46.147"/>
<polygon fill="#000000" stroke="#000000" points="139.5001,-46.0501 136,-36.0502 132.5001,-46.0502 139.5001,-46.0501"/>
<text text-anchor="middle" x="122.9765" y="-81.1131" font-family="Times,serif" font-size="14.00" fill="#000000">first </text>
</g>
<!-- _:b3 -->
<g id="node4" class="node">
<title>_:b3</title>
<ellipse fill="none" stroke="#000000" cx="352" cy="-126" rx="28.4127" ry="18"/>
<text text-anchor="middle" x="352" y="-121.8" font-family="Times,serif" font-size="14.00" fill="#000000">_:b3</text>
</g>
<!-- _:b2&#45;&gt;_:b3 -->
<g id="edge7" class="edge">
<title>_:b2&#45;&gt;_:b3</title>
<path fill="none" stroke="#000000" d="M272.3757,-126C284.9259,-126 299.8801,-126 313.4219,-126"/>
<polygon fill="#000000" stroke="#000000" points="313.4388,-129.5001 323.4388,-126 313.4388,-122.5001 313.4388,-129.5001"/>
<text text-anchor="middle" x="301.4514" y="-113.4" font-family="Times,serif" font-size="14.00" fill="#000000">rest &#160;&#160;&#160;</text>
</g>
<!-- fo -->
<g id="node8" class="node">
<title>fo</title>
<polygon fill="none" stroke="#000000" points="271,-36 217,-36 217,0 271,0 271,-36"/>
<text text-anchor="middle" x="244" y="-13.8" font-family="Times,serif" font-size="14.00" fill="#000000">fo</text>
</g>
<!-- _:b2&#45;&gt;fo -->
<g id="edge3" class="edge">
<title>_:b2&#45;&gt;fo</title>
<path fill="none" stroke="#000000" d="M244,-107.6793C244,-90.821 244,-65.5651 244,-46.147"/>
<polygon fill="#000000" stroke="#000000" points="247.5001,-46.0501 244,-36.0502 240.5001,-46.0502 247.5001,-46.0501"/>
<text text-anchor="middle" x="230.9765" y="-81.1131" font-family="Times,serif" font-size="14.00" fill="#000000">first </text>
</g>
<!-- nil -->
<g id="node5" class="node">
<title>nil</title>
<polygon fill="none" stroke="#000000" points="487,-144 433,-144 433,-108 487,-108 487,-144"/>
<text text-anchor="middle" x="460" y="-121.8" font-family="Times,serif" font-size="14.00" fill="#000000">nil</text>
</g>
<!-- _:b3&#45;&gt;nil -->
<g id="edge8" class="edge">
<title>_:b3&#45;&gt;nil</title>
<path fill="none" stroke="#000000" d="M380.3757,-126C393.3244,-126 408.832,-126 422.7072,-126"/>
<polygon fill="#000000" stroke="#000000" points="422.93,-129.5001 432.93,-126 422.9299,-122.5001 422.93,-129.5001"/>
<text text-anchor="middle" x="410.094" y="-113.4" font-family="Times,serif" font-size="14.00" fill="#000000">rest &#160;&#160;&#160;</text>
</g>
<!-- fum -->
<g id="node9" class="node">
<title>fum</title>
<polygon fill="none" stroke="#000000" points="379,-36 325,-36 325,0 379,0 379,-36"/>
<text text-anchor="middle" x="352" y="-13.8" font-family="Times,serif" font-size="14.00" fill="#000000">fum</text>
</g>
<!-- _:b3&#45;&gt;fum -->
<g id="edge4" class="edge">
<title>_:b3&#45;&gt;fum</title>
<path fill="none" stroke="#000000" d="M352,-107.6793C352,-90.821 352,-65.5651 352,-46.147"/>
<polygon fill="#000000" stroke="#000000" points="355.5001,-46.0501 352,-36.0502 348.5001,-46.0502 355.5001,-46.0501"/>
<text text-anchor="middle" x="338.9765" y="-81.1131" font-family="Times,serif" font-size="14.00" fill="#000000">first </text>
</g>
</g>
</svg>