<?xml version="1.0" encoding="UTF-8" standalone="no"?>
<!DOCTYPE svg PUBLIC "-//W3C//DTD SVG 1.1//EN"
 "http://www.w3.org/Graphics/SVG/1.1/DTD/svg11.dtd">
<!-- Generated by graphviz version 2.40.1 (20161225.0304)
 -->
<!-- Title: G Pages: 1 -->
<svg width="392pt" height="454pt"
 viewBox="0.00 0.00 392.14 454.27" xmlns="http://www.w3.org/2000/svg" xmlns:xlink="http://www.w3.org/1999/xlink">
<g id="graph0" class="graph" transform="scale(1 1) rotate(0) translate(4 450.2678)">
<title>G</title>
<polygon fill="#ffffff" stroke="transparent" points="-4,4 -4,-450.2678 388.145,-450.2678 388.145,4 -4,4"/>
<!-- _:a -->
<g id="node1" class="node">
<title>_:a</title>
<ellipse fill="none" stroke="#000000" cx="167.7829" cy="-112.1546" rx="27" ry="18"/>
</g>
<!-- _:b -->
<g id="node2" class="node">
<title>_:b</title>
<ellipse fill="none" stroke="#000000" cx="167.7829" cy="-334.1133" rx="27" ry="18"/>
</g>
<!-- _:a&#45;&gt;_:b -->
<g id="edge3" class="edge">
<title>_:a&#45;&gt;_:b</title>
<path fill="none" stroke="#000000" d="M167.7829,-130.3184C167.7829,-168.9465 167.7829,-259.4919 167.7829,-305.78"/>
<polygon fill="#000000" stroke="#000000" points="164.283,-306.0097 167.7829,-316.0098 171.283,-306.0098 164.283,-306.0097"/>
<text text-anchor="middle" x="148.731" y="-222.2492" font-family="Times,serif" font-size="14.00" fill="#000000">spouse</text>
</g>
<!-- _:an -->
<g id="node3" class="node">
<title>_:an</title>
<ellipse fill="none" stroke="#000000" cx="198.3756" cy="-18" rx="27" ry="18"/>
</g>
<!-- _:a&#45;&gt;_:an -->
<g id="edge7" class="edge">
<title>_:a&#45;&gt;_:an</title>
<path fill="none" stroke="#000000" d="M173.5371,-94.4448C178.0238,-80.6362 184.3341,-61.215 189.4715,-45.4039"/>
<polygon fill="#000000" stroke="#000000" points="192.8856,-46.2225 192.6471,-35.6303 186.2282,-44.0593 192.8856,-46.2225"/>
<text text-anchor="middle" x="166.3444" y="-74.1244" font-family="Times,serif" font-size="14.00" fill="#000000">name</text>
</g>
<!-- _:g -->
<g id="node5" class="node">
<title>_:g</title>
<ellipse fill="none" stroke="#000000" cx="37.3188" cy="-154.5449" rx="27" ry="18"/>
</g>
<!-- _:a&#45;&gt;_:g -->
<g id="edge10" class="edge">
<title>_:a&#45;&gt;_:g</title>
<path fill="none" stroke="#000000" d="M143.2436,-120.1279C122.9254,-126.7297 93.8376,-136.1809 71.2825,-143.5095"/>
<polygon fill="#000000" stroke="#000000" points="70.1771,-140.1884 61.7481,-146.6074 72.3403,-146.8458 70.1771,-140.1884"/>
<text text-anchor="middle" x="88.2182" y="-136.0187" font-family="Times,serif" font-size="14.00" fill="#000000">gender</text>
</g>
<!-- Person -->
<g id="node8" class="node">
<title>Person</title>
<ellipse fill="none" stroke="#000000" cx="37.3188" cy="-291.7229" rx="37.1386" ry="18"/>
<text text-anchor="middle" x="37.3188" y="-287.5229" font-family="Times,serif" font-size="14.00" fill="#000000">Person</text>
</g>
<!-- _:a&#45;&gt;Person -->
<g id="edge1" class="edge">
<title>_:a&#45;&gt;Person</title>
<path fill="none" stroke="#000000" d="M155.975,-128.4068C133.2119,-159.7375 83.1051,-228.7036 55.8532,-266.2126"/>
<polygon fill="#000000" stroke="#000000" points="52.8118,-264.4441 49.7655,-274.5916 58.475,-268.5586 52.8118,-264.4441"/>
<text text-anchor="middle" x="93.8615" y="-201.5097" font-family="Times,serif" font-size="14.00" fill="#000000">type</text>
</g>
<!-- _:bn -->
<g id="node4" class="node">
<title>_:bn</title>
<ellipse fill="none" stroke="#000000" cx="198.3756" cy="-428.2678" rx="27" ry="18"/>
</g>
<!-- _:b&#45;&gt;_:bn -->
<g id="edge8" class="edge">
<title>_:b&#45;&gt;_:bn</title>
<path fill="none" stroke="#000000" d="M173.5371,-351.823C178.0238,-365.6316 184.3341,-385.0528 189.4715,-400.8639"/>
<polygon fill="#000000" stroke="#000000" points="186.2282,-402.2085 192.6471,-410.6375 192.8856,-400.0453 186.2282,-402.2085"/>
<text text-anchor="middle" x="166.3444" y="-380.5435" font-family="Times,serif" font-size="14.00" fill="#000000">name</text>
</g>
<!-- _:b&#45;&gt;_:g -->
<g id="edge9" class="edge">
<title>_:b&#45;&gt;_:g</title>
<path fill="none" stroke="#000000" d="M155.975,-317.8611C133.0377,-286.2906 82.3365,-216.5064 55.2316,-179.1997"/>
<polygon fill="#000000" stroke="#000000" points="57.9035,-176.9227 49.1941,-170.8898 52.2404,-181.0372 57.9035,-176.9227"/>
<text text-anchor="middle" x="86.5584" y="-252.7304" font-family="Times,serif" font-size="14.00" fill="#000000">gender</text>
</g>
<!-- _:b&#45;&gt;Person -->
<g id="edge2" class="edge">
<title>_:b&#45;&gt;Person</title>
<path fill="none" stroke="#000000" d="M143.2436,-326.14C125.0193,-320.2185 99.7397,-312.0047 78.4471,-305.0863"/>
<polygon fill="#000000" stroke="#000000" points="79.2667,-301.6725 68.6746,-301.911 77.1035,-308.3299 79.2667,-301.6725"/>
<text text-anchor="middle" x="98.7927" y="-319.8131" font-family="Times,serif" font-size="14.00" fill="#000000">type</text>
</g>
<!-- _:m -->
<g id="node6" class="node">
<title>_:m</title>
<ellipse fill="none" stroke="#000000" cx="248.4141" cy="-223.1339" rx="27" ry="18"/>
</g>
<!-- _:m&#45;&gt;_:a -->
<g id="edge5" class="edge">
<title>_:m&#45;&gt;_:a</title>
<path fill="none" stroke="#000000" d="M236.5167,-206.7585C223.118,-188.3169 201.1989,-158.1479 185.7208,-136.844"/>
<polygon fill="#000000" stroke="#000000" points="188.4386,-134.6301 179.7291,-128.5972 182.7754,-138.7446 188.4386,-134.6301"/>
<text text-anchor="middle" x="197.1285" y="-176.0013" font-family="Times,serif" font-size="14.00" fill="#000000">actor</text>
</g>
<!-- _:m&#45;&gt;_:b -->
<g id="edge6" class="edge">
<title>_:m&#45;&gt;_:b</title>
<path fill="none" stroke="#000000" d="M236.5167,-239.5093C223.118,-257.9509 201.1989,-288.12 185.7208,-309.4238"/>
<polygon fill="#000000" stroke="#000000" points="182.7754,-307.5232 179.7291,-317.6707 188.4386,-311.6378 182.7754,-307.5232"/>
<text text-anchor="middle" x="197.1285" y="-278.6666" font-family="Times,serif" font-size="14.00" fill="#000000">actor</text>
</g>
<!-- _:mn -->
<g id="node7" class="node">
<title>_:mn</title>
<ellipse fill="none" stroke="#000000" cx="345.1587" cy="-152.1219" rx="27" ry="18"/>
</g>
<!-- _:m&#45;&gt;_:mn -->
<g id="edge11" class="edge">
<title>_:m&#45;&gt;_:mn</title>
<path fill="none" stroke="#000000" d="M266.611,-209.7771C281.2468,-199.0342 302.0188,-183.7872 318.5261,-171.6706"/>
<polygon fill="#000000" stroke="#000000" points="320.7241,-174.399 326.7145,-165.6602 316.582,-168.756 320.7241,-174.399"/>
<text text-anchor="middle" x="277.4086" y="-178.1239" font-family="Times,serif" font-size="14.00" fill="#000000">name</text>
</g>
<!-- Movie -->
<g id="node9" class="node">
<title>Movie</title>
<ellipse fill="none" stroke="#000000" cx="347.8971" cy="-285.3135" rx="36.4975" ry="18"/>
<text text-anchor="middle" x="347.8971" y="-281.1135" font-family="Times,serif" font-size="14.00" fill="#000000">Movie</text>
</g>
<!-- _:m&#45;&gt;Movie -->
<g id="edge4" class="edge">
<title>_:m&#45;&gt;Movie</title>
<path fill="none" stroke="#000000" d="M268.5459,-235.7169C282.2147,-244.2602 300.5737,-255.7351 316.1898,-265.4956"/>
<polygon fill="#000000" stroke="#000000" points="314.6763,-268.677 325.0112,-271.0092 318.3864,-262.7411 314.6763,-268.677"/>
<text text-anchor="middle" x="280.3153" y="-254.8062" font-family="Times,serif" font-size="14.00" fill="#000000">type</text>
</g>
</g>
</svg>