<?xml version="1.0" encoding="UTF-8" standalone="no"?>
<!DOCTYPE svg PUBLIC "-//W3C//DTD SVG 1.1//EN"
 "http://www.w3.org/Graphics/SVG/1.1/DTD/svg11.dtd">
<!-- Generated by graphviz version 2.40.1 (20161225.0304)
 -->
<!-- Title: G Pages: 1 -->
<svg width="299pt" height="222pt"
 viewBox="0.00 0.00 299.36 221.60" xmlns="http://www.w3.org/2000/svg" xmlns:xlink="http://www.w3.org/1999/xlink">
<g id="graph0" class="graph" transform="scale(1 1) rotate(0) translate(4 217.6)">
<title>G</title>
<polygon fill="#ffffff" stroke="transparent" points="-4,4 -4,-217.6 295.3581,-217.6 295.3581,4 -4,4"/>
<!-- alice -->
<g id="node1" class="node">
<title>alice</title>
<polygon fill="none" stroke="#000000" points="173.6897,-124.8 -.2303,-124.8 -.2303,-88.8 173.6897,-88.8 173.6897,-124.8"/>
<text text-anchor="middle" x="86.7297" y="-102.6" font-family="Times,serif" font-size="14.00" fill="#000000">http://example.org/alice#me</text>
</g>
<!-- bob -->
<g id="node2" class="node">
<title>bob</title>
<ellipse fill="none" stroke="#000000" cx="129.7297" cy="-195.6" rx="27" ry="18"/>
</g>
<!-- bob&#45;&gt;alice -->
<g id="edge2" class="edge">
<title>bob&#45;&gt;alice</title>
<path fill="none" stroke="#000000" d="M120.4508,-178.4915C117.2973,-172.5489 113.8015,-165.8163 110.7521,-159.6 106.7354,-151.4118 102.5543,-142.4092 98.8277,-134.1931"/>
<polygon fill="#000000" stroke="#000000" points="101.9904,-132.6921 94.699,-125.0054 95.6055,-135.5613 101.9904,-132.6921"/>
<text text-anchor="middle" x="143.2185" y="-147" font-family="Times,serif" font-size="14.00" fill="#000000">foaf:knows</text>
</g>
<!-- lisa -->
<g id="node3" class="node">
<title>lisa</title>
<ellipse fill="none" stroke="#000000" cx="218.7297" cy="-106.8" rx="27" ry="18"/>
</g>
<!-- bob&#45;&gt;lisa -->
<g id="edge1" class="edge">
<title>bob&#45;&gt;lisa</title>
<path fill="none" stroke="#000000" d="M147.9075,-181.9283C156.0898,-175.4762 165.6941,-167.4759 173.7297,-159.6 182.7775,-150.7321 191.9874,-140.2374 199.6986,-130.95"/>
<polygon fill="#000000" stroke="#000000" points="202.4364,-133.1308 206.0476,-123.1703 197.0132,-128.7049 202.4364,-133.1308"/>
<text text-anchor="middle" x="240.0439" y="-147" font-family="Times,serif" font-size="14.00" fill="#000000">foaf:topic_interest</text>
</g>
<g id="node4" class="node">
<title></title>
<ellipse fill="none" stroke="#000000" cx="218.7297" cy="-18" rx="27" ry="18"/>
</g>
<!-- lisa&#45;&gt; -->
<g id="edge3" class="edge">
<title>lisa&#45;&gt;</title>
<path fill="none" stroke="#000000" d="M218.7297,-88.4006C218.7297,-76.2949 218.7297,-60.2076 218.7297,-46.4674"/>
<polygon fill="#000000" stroke="#000000" points="222.2298,-46.072 218.7297,-36.072 215.2298,-46.0721 222.2298,-46.072"/>
<text text-anchor="middle" x="253.7213" y="-58.2" font-family="Times,serif" font-size="14.00" fill="#000000">dcterms:title</text>
</g>
</g>
</svg>