<?xml version="1.0" encoding="UTF-8" standalone="no"?>
<!DOCTYPE svg PUBLIC "-//W3C//DTD SVG 1.1//EN"
 "http://www.w3.org/Graphics/SVG/1.1/DTD/svg11.dtd">
<!-- Generated by graphviz version 2.40.1 (20161225.0304)
 -->
<!-- Title: G Pages: 1 -->
<svg width="404pt" height="222pt"
 viewBox="0.00 0.00 404.03 221.60" xmlns="http://www.w3.org/2000/svg" xmlns:xlink="http://www.w3.org/1999/xlink">
<g id="graph0" class="graph" transform="scale(1 1) rotate(0) translate(4 217.6)">
<title>G</title>
<polygon fill="#ffffff" stroke="transparent" points="-4,4 -4,-217.6 400.0274,-217.6 400.0274,4 -4,4"/>
<!-- alice -->
<g id="node1" class="node">
<title>alice</title>
<polygon fill="none" stroke="#000000" points="173.6897,-124.8 -.2303,-124.8 -.2303,-88.8 173.6897,-88.8 173.6897,-124.8"/>
<text text-anchor="middle" x="86.7297" y="-102.6" font-family="Times,serif" font-size="14.00" fill="#000000">http://example.org/alice#me</text>
</g>
<!-- bob -->
<g id="node2" class="node">
<title>bob</title>
<polygon fill="none" stroke="#000000" points="213.7641,-213.6 45.6953,-213.6 45.6953,-177.6 213.7641,-177.6 213.7641,-213.6"/>
<text text-anchor="middle" x="129.7297" y="-191.4" font-family="Times,serif" font-size="14.00" fill="#000000">http://example.org/bob#me</text>
</g>
<!-- bob&#45;&gt;alice -->
<g id="edge2" class="edge">
<title>bob&#45;&gt;alice</title>
<path fill="none" stroke="#000000" d="M120.8201,-177.2006C114.784,-164.7353 106.7036,-148.0484 99.9248,-134.0494"/>
<polygon fill="#000000" stroke="#000000" points="102.9892,-132.3469 95.4808,-124.872 96.689,-135.3977 102.9892,-132.3469"/>
<text text-anchor="middle" x="144.2185" y="-147" font-family="Times,serif" font-size="14.00" fill="#000000">foaf:knows</text>
</g>
<!-- lisa -->
<g id="node3" class="node">
<title>lisa</title>
<polygon fill="none" stroke="#000000" points="395.8255,-124.8 191.6339,-124.8 191.6339,-88.8 395.8255,-88.8 395.8255,-124.8"/>
<text text-anchor="middle" x="293.7297" y="-102.6" font-family="Times,serif" font-size="14.00" fill="#000000">http://wikidata.org/entity/Q12418</text>
</g>
<!-- bob&#45;&gt;lisa -->
<g id="edge1" class="edge">
<title>bob&#45;&gt;lisa</title>
<path fill="none" stroke="#000000" d="M163.3133,-177.4157C188.8241,-163.6026 224.0754,-144.5153 251.4975,-129.6672"/>
<polygon fill="#000000" stroke="#000000" points="253.3445,-132.6473 260.4716,-124.808 250.0114,-126.4917 253.3445,-132.6473"/>
<text text-anchor="middle" x="277.0439" y="-147" font-family="Times,serif" font-size="14.00" fill="#000000">foaf:topic_interest</text>
</g>
<!-- &quot;Mona Lisa&quot; -->
<g id="node4" class="node">
<title>&quot;Mona Lisa&quot;</title>
<polygon fill="none" stroke="#000000" points="337.4131,-36 250.0463,-36 250.0463,0 337.4131,0 337.4131,-36"/>
<text text-anchor="middle" x="293.7297" y="-13.8" font-family="Times,serif" font-size="14.00" fill="#000000">&quot;Mona Lisa&quot;</text>
</g>
<!-- lisa&#45;&gt;&quot;Mona Lisa&quot; -->
<g id="edge3" class="edge">
<title>lisa&#45;&gt;&quot;Mona Lisa&quot;</title>
<path fill="none" stroke="#000000" d="M293.7297,-88.4006C293.7297,-76.2949 293.7297,-60.2076 293.7297,-46.4674"/>
<polygon fill="#000000" stroke="#000000" points="297.2298,-46.072 293.7297,-36.072 290.2298,-46.0721 297.2298,-46.072"/>
<text text-anchor="middle" x="328.7213" y="-58.2" font-family="Times,serif" font-size="14.00" fill="#000000">dcterms:title</text>
</g>
</g>
</svg>