<?xml version="1.0" encoding="UTF-8" standalone="no"?>
<!DOCTYPE svg PUBLIC "-//W3C//DTD SVG 1.1//EN"
 "http://www.w3.org/Graphics/SVG/1.1/DTD/svg11.dtd">
<!-- Generated by graphviz version 2.40.1 (20161225.0304)
 -->
<!-- Title: G Pages: 1 -->
<svg width="430pt" height="490pt"
 viewBox="0.00 0.00 430.32 489.72" xmlns="http://www.w3.org/2000/svg" xmlns:xlink="http://www.w3.org/1999/xlink">
<g id="graph0" class="graph" transform="scale(1 1) rotate(0) translate(4 485.7161)">
<title>G</title>
<polygon fill="#ffffff" stroke="transparent" points="-4,4 -4,-485.7161 426.3162,-485.7161 426.3162,4 -4,4"/>
<!-- _:a -->
<g id="node1" class="node">
<title>_:a</title>
<ellipse fill="none" stroke="#000000" cx="146.3005" cy="-136.9777" rx="42.299" ry="18"/>
<text text-anchor="middle" x="146.3005" y="-132.7777" font-family="monospace" font-size="14.00" fill="#000000">_:a 16.8</text>
</g>
<!-- _:b -->
<g id="node2" class="node">
<title>_:b</title>
<ellipse fill="none" stroke="#000000" cx="146.3005" cy="-344.1966" rx="42.8829" ry="18"/>
<text text-anchor="middle" x="146.3005" y="-339.9966" font-family="monospace" font-size="14.00" fill="#000000">_:b 16.8</text>
</g>
<!-- _:a&#45;&#45;_:b -->
<g id="edge1" class="edge">
<title>_:a&#45;&#45;_:b</title>
<path fill="none" stroke="#000000" d="M146.3005,-155.0045C146.3005,-194.1944 146.3005,-286.7781 146.3005,-326.0639"/>
</g>
<!-- _:g -->
<g id="node3" class="node">
<title>_:g</title>
<ellipse fill="none" stroke="#000000" cx="42.691" cy="-240.5872" rx="42.8829" ry="18"/>
<text text-anchor="middle" x="42.691" y="-236.3872" font-family="monospace" font-size="14.00" fill="#000000">_:g 43.2</text>
</g>
<!-- _:a&#45;&#45;_:g -->
<g id="edge7" class="edge">
<title>_:a&#45;&#45;_:g</title>
<path fill="none" stroke="#000000" d="M129.6538,-153.6244C110.3192,-172.959 78.6134,-204.6648 59.2963,-223.9818"/>
</g>
<!-- _:an -->
<g id="node5" class="node">
<title>_:an</title>
<ellipse fill="none" stroke="#000000" cx="146.3005" cy="-18" rx="46.9555" ry="18"/>
<text text-anchor="middle" x="146.3005" y="-13.8" font-family="monospace" font-size="14.00" fill="#000000">_:an 72.0</text>
</g>
<!-- _:a&#45;&#45;_:an -->
<g id="edge4" class="edge">
<title>_:a&#45;&#45;_:an</title>
<path fill="none" stroke="#000000" d="M146.3005,-118.9076C146.3005,-96.5451 146.3005,-58.6809 146.3005,-36.2402"/>
</g>
<!-- _:b&#45;&#45;_:g -->
<g id="edge6" class="edge">
<title>_:b&#45;&#45;_:g</title>
<path fill="none" stroke="#000000" d="M129.6538,-327.55C110.3192,-308.2153 78.6134,-276.5095 59.2963,-257.1925"/>
</g>
<!-- _:bn -->
<g id="node6" class="node">
<title>_:bn</title>
<ellipse fill="none" stroke="#000000" cx="146.3005" cy="-463.7161" rx="47.539" ry="18"/>
<text text-anchor="middle" x="146.3005" y="-459.5161" font-family="monospace" font-size="14.00" fill="#000000">_:bn 72.0</text>
</g>
<!-- _:b&#45;&#45;_:bn -->
<g id="edge5" class="edge">
<title>_:b&#45;&#45;_:bn</title>
<path fill="none" stroke="#000000" d="M146.3005,-362.3491C146.3005,-384.8133 146.3005,-422.8499 146.3005,-445.3928"/>
</g>
<!-- _:m -->
<g id="node4" class="node">
<title>_:m</title>
<ellipse fill="none" stroke="#000000" cx="249.9099" cy="-240.5872" rx="45.2497" ry="18"/>
<text text-anchor="middle" x="249.9099" y="-236.3872" font-family="monospace" font-size="14.00" fill="#000000">_:m 20.3</text>
</g>
<!-- _:m&#45;&#45;_:a -->
<g id="edge2" class="edge">
<title>_:m&#45;&#45;_:a</title>
<path fill="none" stroke="#000000" d="M232.8009,-223.4782C213.4888,-204.1661 182.2712,-172.9485 163.0911,-153.7684"/>
</g>
<!-- _:m&#45;&#45;_:b -->
<g id="edge3" class="edge">
<title>_:m&#45;&#45;_:b</title>
<path fill="none" stroke="#000000" d="M232.8009,-257.6962C213.4888,-277.0083 182.2712,-308.2259 163.0911,-327.406"/>
</g>
<!-- _:mn -->
<g id="node7" class="node">
<title>_:mn</title>
<ellipse fill="none" stroke="#000000" cx="372.1131" cy="-240.5872" rx="50.4071" ry="18"/>
<text text-anchor="middle" x="372.1131" y="-236.3872" font-family="monospace" font-size="14.00" fill="#000000">_:mn 72.0</text>
</g>
<!-- _:m&#45;&#45;_:mn -->
<g id="edge8" class="edge">
<title>_:m&#45;&#45;_:mn</title>
<path fill="none" stroke="#000000" d="M295.4138,-240.5872C303.9641,-240.5872 312.9512,-240.5872 321.6421,-240.5872"/>
</g>
</g>
</svg>