<?xml version="1.0" encoding="UTF-8" standalone="no"?>
<!DOCTYPE svg PUBLIC "-//W3C//DTD SVG 1.1//EN"
 "http://www.w3.org/Graphics/SVG/1.1/DTD/svg11.dtd">
<!-- Generated by graphviz version 2.40.1 (20161225.0304)
 -->
<!-- Title: G Pages: 1 -->
<svg width="964pt" height="60pt"
 viewBox="0.00 0.00 964.00 60.16" xmlns="http://www.w3.org/2000/svg" xmlns:xlink="http://www.w3.org/1999/xlink">
<g id="graph0" class="graph" transform="scale(1 1) rotate(0) translate(4 48.0862)">
<title>G</title>
<polygon fill="#ffffff" stroke="transparent" points="-4,12.0745 -4,-48.0862 960,-48.0862 960,12.0745 -4,12.0745"/>
<!-- _:a -->
<g id="node1" class="node">
<title>_:a</title>
<ellipse fill="none" stroke="#000000" cx="42" cy="-18" rx="42.299" ry="18"/>
<text text-anchor="middle" x="42" y="-13.8" font-family="monospace" font-size="14.00" fill="#000000">_:a 16.8</text>
</g>
<!-- _:b -->
<g id="node2" class="node">
<title>_:b</title>
<ellipse fill="none" stroke="#000000" cx="186" cy="-18" rx="42.8829" ry="18"/>
<text text-anchor="middle" x="186" y="-13.8" font-family="monospace" font-size="14.00" fill="#000000">_:b 16.8</text>
</g>
<!-- _:a&#45;&gt;_:b -->
<g id="edge1" class="edge">
<title>_:a&#45;&gt;_:b</title>
<path fill="none" stroke="#000000" d="M84.4259,-18C99.6021,-18 116.9,-18 132.8662,-18"/>
<polygon fill="#000000" stroke="#000000" points="133.1304,-21.5001 143.1304,-18 133.1303,-14.5001 133.1304,-21.5001"/>
</g>
<!-- _:g -->
<g id="node3" class="node">
<title>_:g</title>
<ellipse fill="none" stroke="#000000" cx="474" cy="-18" rx="42.8829" ry="18"/>
<text text-anchor="middle" x="474" y="-13.8" font-family="monospace" font-size="14.00" fill="#000000">_:g 43.2</text>
</g>
<!-- _:a&#45;&gt;_:g -->
<g id="edge7" class="edge">
<title>_:a&#45;&gt;_:g</title>
<path fill="none" stroke="#000000" d="M81.3302,-11.1928C110.2389,-6.5467 150.5327,-.8132 186.2013,1.5998 250.0361,5.9182 266.3238,5.9289 330.1578,1.5999 361.5967,-.5322 396.6365,-5.2567 424.261,-9.5329"/>
<polygon fill="#000000" stroke="#000000" points="424.0388,-13.0411 434.4623,-11.1435 425.1305,-6.1268 424.0388,-13.0411"/>
</g>
<!-- _:m -->
<g id="node4" class="node">
<title>_:m</title>
<ellipse fill="none" stroke="#000000" cx="330" cy="-18" rx="45.2497" ry="18"/>
<text text-anchor="middle" x="330" y="-13.8" font-family="monospace" font-size="14.00" fill="#000000">_:m 20.3</text>
</g>
<!-- _:a&#45;&gt;_:m -->
<g id="edge2" class="edge">
<title>_:a&#45;&gt;_:m</title>
<path fill="none" stroke="#000000" d="M79.9561,-26.0246C108.8375,-31.4354 149.6426,-37.593 185.7987,-37.5998 217.163,-37.6057 252.0178,-32.9969 279.6026,-28.2476"/>
<polygon fill="#000000" stroke="#000000" points="280.566,-31.6311 289.7963,-26.4299 279.3371,-24.7398 280.566,-31.6311"/>
</g>
<!-- _:an -->
<g id="node5" class="node">
<title>_:an</title>
<ellipse fill="none" stroke="#000000" cx="618" cy="-18" rx="46.9555" ry="18"/>
<text text-anchor="middle" x="618" y="-13.8" font-family="monospace" font-size="14.00" fill="#000000">_:an 72.0</text>
</g>
<!-- _:a&#45;&gt;_:an -->
<g id="edge4" class="edge">
<title>_:a&#45;&gt;_:an</title>
<path fill="none" stroke="#000000" d="M81.2196,-24.8071C110.0471,-29.4533 150.2283,-35.1868 185.7987,-37.5998 313.4305,-46.2579 345.9962,-46.2237 473.6303,-37.5993 503.9521,-35.5504 537.613,-31.1075 564.7995,-26.9691"/>
<polygon fill="#000000" stroke="#000000" points="565.537,-30.3966 574.8815,-25.4035 564.4628,-23.4795 565.537,-30.3966"/>
</g>
<!-- _:b&#45;&gt;_:g -->
<g id="edge6" class="edge">
<title>_:b&#45;&gt;_:g</title>
<path fill="none" stroke="#000000" d="M224.2701,-26.0821C253.1423,-31.4795 293.8014,-37.5946 329.8422,-37.5999 362.0102,-37.6046 397.8508,-32.7536 425.7481,-27.8771"/>
<polygon fill="#000000" stroke="#000000" points="426.4271,-31.3112 435.6451,-26.0883 425.182,-24.4228 426.4271,-31.3112"/>
</g>
<!-- _:b&#45;&gt;_:m -->
<g id="edge3" class="edge">
<title>_:b&#45;&gt;_:m</title>
<path fill="none" stroke="#000000" d="M228.8149,-18C243.0952,-18 259.2194,-18 274.3305,-18"/>
<polygon fill="#000000" stroke="#000000" points="274.5951,-21.5001 284.595,-18 274.595,-14.5001 274.5951,-21.5001"/>
</g>
<!-- _:bn -->
<g id="node6" class="node">
<title>_:bn</title>
<ellipse fill="none" stroke="#000000" cx="762" cy="-18" rx="47.539" ry="18"/>
<text text-anchor="middle" x="762" y="-13.8" font-family="monospace" font-size="14.00" fill="#000000">_:bn 72.0</text>
</g>
<!-- _:b&#45;&gt;_:bn -->
<g id="edge5" class="edge">
<title>_:b&#45;&gt;_:bn</title>
<path fill="none" stroke="#000000" d="M225.5377,-24.8565C254.3518,-29.4938 294.3869,-35.1954 329.8422,-37.5999 457.497,-46.257 490.0687,-46.2311 617.7253,-37.5997 647.9156,-35.5584 681.418,-31.1406 708.5337,-27.0151"/>
<polygon fill="#000000" stroke="#000000" points="709.2482,-30.4462 718.5931,-25.4539 708.1746,-23.529 709.2482,-30.4462"/>
</g>
<!-- _:mn -->
<g id="node7" class="node">
<title>_:mn</title>
<ellipse fill="none" stroke="#000000" cx="906" cy="-18" rx="50.4071" ry="18"/>
<text text-anchor="middle" x="906" y="-13.8" font-family="monospace" font-size="14.00" fill="#000000">_:mn 72.0</text>
</g>
<!-- _:m&#45;&gt;_:mn -->
<g id="edge8" class="edge">
<title>_:m&#45;&gt;_:mn</title>
<path fill="none" stroke="#000000" d="M371.858,-10.7965C400.5962,-6.2255 439.6695,-.7454 474.3697,1.5993 601.915,10.2176 634.4571,10.2401 762.0009,1.6 791.3531,-.3884 823.8411,-4.6317 850.5189,-8.6633"/>
<polygon fill="#000000" stroke="#000000" points="850.0236,-12.1282 860.4402,-10.1929 851.0903,-5.21 850.0236,-12.1282"/>
</g>
</g>
</svg>