<?xml version="1.0" encoding="UTF-8" standalone="no"?>
<!DOCTYPE svg PUBLIC "-//W3C//DTD SVG 1.1//EN"
 "http://www.w3.org/Graphics/SVG/1.1/DTD/svg11.dtd">
<!-- Generated by graphviz version 2.40.1 (20161225.0304)
 -->
<!-- Title: G Pages: 1 -->
<svg width="329pt" height="404pt"
 viewBox="0.00 0.00 329.21 404.30" xmlns="http://www.w3.org/2000/svg" xmlns:xlink="http://www.w3.org/1999/xlink">
<g id="graph0" class="graph" transform="scale(1 1) rotate(0) translate(4 400.2976)">
<title>G</title>
<polygon fill="#ffffff" stroke="transparent" points="-4,4 -4,-400.2976 325.2067,-400.2976 325.2067,4 -4,4"/>
<!-- _:a -->
<g id="node1" class="node">
<title>_:a</title>
<ellipse fill="none" stroke="#000000" cx="107.2141" cy="-117.6638" rx="27" ry="18"/>
<text text-anchor="middle" x="107.2141" y="-113.4638" font-family="monospace" font-size="14.00" fill="#000000">_:a</text>
</g>
<!-- _:b -->
<g id="node2" class="node">
<title>_:b</title>
<ellipse fill="none" stroke="#000000" cx="107.2141" cy="-278.092" rx="27" ry="18"/>
<text text-anchor="middle" x="107.2141" y="-273.892" font-family="monospace" font-size="14.00" fill="#000000">_:b</text>
</g>
<!-- _:a&#45;&#45;_:b -->
<g id="edge1" class="edge">
<title>_:a&#45;&#45;_:b</title>
<path fill="none" stroke="#000000" d="M107.2141,-135.7551C107.2141,-166.5666 107.2141,-228.887 107.2141,-259.8207"/>
</g>
<!-- _:g -->
<g id="node3" class="node">
<title>_:g</title>
<ellipse fill="none" stroke="#000000" cx="27" cy="-197.8779" rx="27" ry="18"/>
<text text-anchor="middle" x="27" y="-193.6779" font-family="monospace" font-size="14.00" fill="#000000">_:g</text>
</g>
<!-- _:a&#45;&#45;_:g -->
<g id="edge7" class="edge">
<title>_:a&#45;&#45;_:g</title>
<path fill="none" stroke="#000000" d="M92.1264,-132.7515C77.7854,-147.0925 56.3386,-168.5393 42.02,-182.8579"/>
</g>
<!-- _:an -->
<g id="node5" class="node">
<title>_:an</title>
<ellipse fill="none" stroke="#000000" cx="107.2141" cy="-18" rx="27.8286" ry="18"/>
<text text-anchor="middle" x="107.2141" y="-13.8" font-family="monospace" font-size="14.00" fill="#000000">_:an</text>
</g>
<!-- _:a&#45;&#45;_:an -->
<g id="edge4" class="edge">
<title>_:a&#45;&#45;_:an</title>
<path fill="none" stroke="#000000" d="M107.2141,-99.384C107.2141,-81.4014 107.2141,-54.1064 107.2141,-36.164"/>
</g>
<!-- _:b&#45;&#45;_:g -->
<g id="edge6" class="edge">
<title>_:b&#45;&#45;_:g</title>
<path fill="none" stroke="#000000" d="M92.1264,-263.0044C77.7854,-248.6634 56.3386,-227.2165 42.02,-212.8979"/>
</g>
<!-- _:bn -->
<g id="node6" class="node">
<title>_:bn</title>
<ellipse fill="none" stroke="#000000" cx="107.2141" cy="-378.2976" rx="28.4127" ry="18"/>
<text text-anchor="middle" x="107.2141" y="-374.0976" font-family="monospace" font-size="14.00" fill="#000000">_:bn</text>
</g>
<!-- _:b&#45;&#45;_:bn -->
<g id="edge5" class="edge">
<title>_:b&#45;&#45;_:bn</title>
<path fill="none" stroke="#000000" d="M107.2141,-296.4713C107.2141,-314.5516 107.2141,-341.9949 107.2141,-360.0349"/>
</g>
<!-- _:m -->
<g id="node4" class="node">
<title>_:m</title>
<ellipse fill="none" stroke="#000000" cx="187.4282" cy="-197.8779" rx="27" ry="18"/>
<text text-anchor="middle" x="187.4282" y="-193.6779" font-family="monospace" font-size="14.00" fill="#000000">_:m</text>
</g>
<!-- _:m&#45;&#45;_:a -->
<g id="edge2" class="edge">
<title>_:m&#45;&#45;_:a</title>
<path fill="none" stroke="#000000" d="M172.3405,-182.7903C157.9995,-168.4493 136.5527,-147.0024 122.2341,-132.6838"/>
</g>
<!-- _:m&#45;&#45;_:b -->
<g id="edge3" class="edge">
<title>_:m&#45;&#45;_:b</title>
<path fill="none" stroke="#000000" d="M172.3405,-212.9656C157.9995,-227.3066 136.5527,-248.7534 122.2341,-263.072"/>
</g>
<!-- _:mn -->
<g id="node7" class="node">
<title>_:mn</title>
<ellipse fill="none" stroke="#000000" cx="290.3174" cy="-197.8779" rx="30.7789" ry="18"/>
<text text-anchor="middle" x="290.3174" y="-193.6779" font-family="monospace" font-size="14.00" fill="#000000">_:mn</text>
</g>
<!-- _:m&#45;&#45;_:mn -->
<g id="edge8" class="edge">
<title>_:m&#45;&#45;_:mn</title>
<path fill="none" stroke="#000000" d="M214.4611,-197.8779C228.1552,-197.8779 244.8537,-197.8779 259.0938,-197.8779"/>
</g>
</g>
</svg>