<?xml version="1.0" encoding="UTF-8" standalone="no"?>
<!DOCTYPE svg PUBLIC "-//W3C//DTD SVG 1.1//EN"
 "http://www.w3.org/Graphics/SVG/1.1/DTD/svg11.dtd">
<!-- Generated by graphviz version 2.40.1 (20161225.0304)
 -->
<!-- Title: G Pages: 1 -->
<svg width="391pt" height="456pt"
 viewBox="0.00 0.00 391.04 456.05" xmlns="http://www.w3.org/2000/svg" xmlns:xlink="http://www.w3.org/1999/xlink">
<g id="graph0" class="graph" transform="scale(1 1) rotate(0) translate(4 452.0458)">
<title>G</title>
<polygon fill="#ffffff" stroke="transparent" points="-4,4 -4,-452.0458 387.0376,-452.0458 387.0376,4 -4,4"/>
<!-- _:a -->
<g id="node1" class="node">
<title>_:a</title>
<ellipse fill="none" stroke="#000000" cx="167.7829" cy="-112.7859" rx="27" ry="18"/>
<text text-anchor="middle" x="167.7829" y="-108.5859" font-family="monospace" font-size="14.00" fill="#000000">_:a</text>
</g>
<!-- _:b -->
<g id="node2" class="node">
<title>_:b</title>
<ellipse fill="none" stroke="#000000" cx="167.7829" cy="-334.7446" rx="27" ry="18"/>
<text text-anchor="middle" x="167.7829" y="-330.5446" font-family="monospace" font-size="14.00" fill="#000000">_:b</text>
</g>
<!-- _:a&#45;&gt;_:b -->
<g id="edge3" class="edge">
<title>_:a&#45;&gt;_:b</title>
<path fill="none" stroke="#000000" d="M167.7829,-130.9497C167.7829,-169.5778 167.7829,-260.1232 167.7829,-306.4114"/>
<polygon fill="#000000" stroke="#000000" points="164.283,-306.6411 167.7829,-316.6411 171.283,-306.6411 164.283,-306.6411"/>
<text text-anchor="middle" x="148.731" y="-222.8806" font-family="monospace" font-size="14.00" fill="#000000">spouse</text>
</g>
<!-- _:an -->
<g id="node3" class="node">
<title>_:an</title>
<ellipse fill="none" stroke="#000000" cx="198.5807" cy="-18" rx="27.8286" ry="18"/>
<text text-anchor="middle" x="198.5807" y="-13.8" font-family="monospace" font-size="14.00" fill="#000000">_:an</text>
</g>
<!-- _:a&#45;&gt;_:an -->
<g id="edge7" class="edge">
<title>_:a&#45;&gt;_:an</title>
<path fill="none" stroke="#000000" d="M173.5757,-94.9574C178.0925,-81.0562 184.4451,-61.5048 189.6169,-45.5877"/>
<polygon fill="#000000" stroke="#000000" points="193.0523,-46.3407 192.8138,-35.7486 186.3949,-44.1776 193.0523,-46.3407"/>
<text text-anchor="middle" x="166.4364" y="-74.4726" font-family="monospace" font-size="14.00" fill="#000000">name</text>
</g>
<!-- _:g -->
<g id="node5" class="node">
<title>_:g</title>
<ellipse fill="none" stroke="#000000" cx="37.3188" cy="-155.1763" rx="27" ry="18"/>
<text text-anchor="middle" x="37.3188" y="-150.9763" font-family="monospace" font-size="14.00" fill="#000000">_:g</text>
</g>
<!-- _:a&#45;&gt;_:g -->
<g id="edge10" class="edge">
<title>_:a&#45;&gt;_:g</title>
<path fill="none" stroke="#000000" d="M143.2436,-120.7592C122.9254,-127.361 93.8376,-136.8122 71.2825,-144.1408"/>
<polygon fill="#000000" stroke="#000000" points="70.1771,-140.8198 61.7481,-147.2387 72.3403,-147.4772 70.1771,-140.8198"/>
<text text-anchor="middle" x="88.2182" y="-136.65" font-family="monospace" font-size="14.00" fill="#000000">gender</text>
</g>
<!-- Person -->
<g id="node8" class="node">
<title>Person</title>
<ellipse fill="none" stroke="#000000" cx="37.3188" cy="-292.3543" rx="37.1386" ry="18"/>
<text text-anchor="middle" x="37.3188" y="-288.1543" font-family="monospace" font-size="14.00" fill="#000000">Person</text>
</g>
<!-- _:a&#45;&gt;Person -->
<g id="edge1" class="edge">
<title>_:a&#45;&gt;Person</title>
<path fill="none" stroke="#000000" d="M155.975,-129.0381C133.2119,-160.3688 83.1051,-229.335 55.8532,-266.8439"/>
<polygon fill="#000000" stroke="#000000" points="52.8118,-265.0755 49.7655,-275.2229 58.475,-269.19 52.8118,-265.0755"/>
<text text-anchor="middle" x="93.8615" y="-202.141" font-family="monospace" font-size="14.00" fill="#000000">type</text>
</g>
<!-- _:bn -->
<g id="node4" class="node">
<title>_:bn</title>
<ellipse fill="none" stroke="#000000" cx="198.7481" cy="-430.0458" rx="28.4127" ry="18"/>
<text text-anchor="middle" x="198.7481" y="-425.8458" font-family="monospace" font-size="14.00" fill="#000000">_:bn</text>
</g>
<!-- _:b&#45;&gt;_:bn -->
<g id="edge8" class="edge">
<title>_:b&#45;&gt;_:bn</title>
<path fill="none" stroke="#000000" d="M173.6072,-352.67C178.1485,-366.6468 184.5357,-386.3045 189.7356,-402.3081"/>
<polygon fill="#000000" stroke="#000000" points="186.531,-403.7717 192.9499,-412.2007 193.1884,-401.6086 186.531,-403.7717"/>
<text text-anchor="middle" x="166.5115" y="-381.6891" font-family="monospace" font-size="14.00" fill="#000000">name</text>
</g>
<!-- _:b&#45;&gt;_:g -->
<g id="edge9" class="edge">
<title>_:b&#45;&gt;_:g</title>
<path fill="none" stroke="#000000" d="M155.975,-318.4924C133.0377,-286.9219 82.3365,-217.1378 55.2316,-179.831"/>
<polygon fill="#000000" stroke="#000000" points="57.9035,-177.554 49.1941,-171.5211 52.2404,-181.6686 57.9035,-177.554"/>
<text text-anchor="middle" x="86.5584" y="-253.3617" font-family="monospace" font-size="14.00" fill="#000000">gender</text>
</g>
<!-- _:b&#45;&gt;Person -->
<g id="edge2" class="edge">
<title>_:b&#45;&gt;Person</title>
<path fill="none" stroke="#000000" d="M143.2436,-326.7713C125.0193,-320.8499 99.7397,-312.636 78.4471,-305.7176"/>
<polygon fill="#000000" stroke="#000000" points="79.2667,-302.3039 68.6746,-302.5424 77.1035,-308.9613 79.2667,-302.3039"/>
<text text-anchor="middle" x="98.7927" y="-320.4445" font-family="monospace" font-size="14.00" fill="#000000">type</text>
</g>
<!-- _:m -->
<g id="node6" class="node">
<title>_:m</title>
<ellipse fill="none" stroke="#000000" cx="248.4141" cy="-223.7653" rx="27" ry="18"/>
<text text-anchor="middle" x="248.4141" y="-219.5653" font-family="monospace" font-size="14.00" fill="#000000">_:m</text>
</g>
<!-- _:m&#45;&gt;_:a -->
<g id="edge5" class="edge">
<title>_:m&#45;&gt;_:a</title>
<path fill="none" stroke="#000000" d="M236.5167,-207.3899C223.118,-188.9483 201.1989,-158.7792 185.7208,-137.4754"/>
<polygon fill="#000000" stroke="#000000" points="188.4386,-135.2614 179.7291,-129.2285 182.7754,-139.376 188.4386,-135.2614"/>
<text text-anchor="middle" x="197.1285" y="-176.6326" font-family="monospace" font-size="14.00" fill="#000000">actor</text>
</g>
<!-- _:m&#45;&gt;_:b -->
<g id="edge6" class="edge">
<title>_:m&#45;&gt;_:b</title>
<path fill="none" stroke="#000000" d="M236.5167,-240.1407C223.118,-258.5823 201.1989,-288.7513 185.7208,-310.0552"/>
<polygon fill="#000000" stroke="#000000" points="182.7754,-308.1546 179.7291,-318.302 188.4386,-312.2691 182.7754,-308.1546"/>
<text text-anchor="middle" x="197.1285" y="-279.2979" font-family="monospace" font-size="14.00" fill="#000000">actor</text>
</g>
<!-- _:mn -->
<g id="node7" class="node">
<title>_:mn</title>
<ellipse fill="none" stroke="#000000" cx="345.1587" cy="-152.7532" rx="30.7789" ry="18"/>
<text text-anchor="middle" x="345.1587" y="-148.5532" font-family="monospace" font-size="14.00" fill="#000000">_:mn</text>
</g>
<!-- _:m&#45;&gt;_:mn -->
<g id="edge11" class="edge">
<title>_:m&#45;&gt;_:mn</title>
<path fill="none" stroke="#000000" d="M266.611,-210.4084C280.9671,-199.8708 301.2272,-184.9996 317.5752,-172.9999"/>
<polygon fill="#000000" stroke="#000000" points="319.7251,-175.7636 325.7156,-167.0248 315.5831,-170.1205 319.7251,-175.7636"/>
<text text-anchor="middle" x="276.9332" y="-179.1042" font-family="monospace" font-size="14.00" fill="#000000">name</text>
</g>
<!-- Movie -->
<g id="node9" class="node">
<title>Movie</title>
<ellipse fill="none" stroke="#000000" cx="346.7897" cy="-289.6731" rx="36.4975" ry="18"/>
<text text-anchor="middle" x="346.7897" y="-285.4731" font-family="monospace" font-size="14.00" fill="#000000">Movie</text>
</g>
<!-- _:m&#45;&gt;Movie -->
<g id="edge4" class="edge">
<title>_:m&#45;&gt;Movie</title>
<path fill="none" stroke="#000000" d="M267.8499,-236.7865C281.7403,-246.0925 300.7011,-258.7955 316.5585,-269.4194"/>
<polygon fill="#000000" stroke="#000000" points="314.7411,-272.4146 324.997,-275.0728 318.6373,-266.5991 314.7411,-272.4146"/>
<text text-anchor="middle" x="280.1516" y="-257.3029" font-family="monospace" font-size="14.00" fill="#000000">type</text>
</g>
</g>
</svg>